<svg xmlns="http://www.w3.org/2000/svg" viewBox="0 0 760 380" width="760" height="380" role="img" aria-label="Labeled items stay on the page, and hidden items leave no gap, only a count" font-family="system-ui, -apple-system, 'Segoe UI', Roboto, Helvetica, Arial, sans-serif" font-size="13">
<title>Labeled items stay on the page, and hidden items leave no gap, only a count</title>
<rect width="760" height="380" fill="#FFFFFF"/>
<text x="24" y="34" font-size="15" font-weight="600" fill="#1A1C1F">Labeled items stay on the page, and hidden items leave no gap, only a count</text>
<rect x="160" y="56" width="576" height="300" rx="10" fill="#FFFFFF" stroke="#BDB8AD" stroke-width="1.25"/>
<line x1="160" y1="96" x2="736" y2="96" stroke="#E4E0D8"/>
<rect x="176" y="66" width="300" height="20" rx="10" fill="none" stroke="#E4E0D8"/>
<text x="644" y="80" text-anchor="end" font-size="11.5" fill="#5A5F66">Hidden on this page</text>
<g transform="translate(668 77) scale(0.42)" fill="#1A1C1F"><rect x="-25" y="-10" width="50" height="5" rx="2.5"/><path fill-rule="evenodd" d="M-19 -5A19 19 0 0 0 19 -5ZM-11 1a2 2 0 1 0 4 0a2 2 0 1 0 -4 0ZM-2 1a2 2 0 1 0 4 0a2 2 0 1 0 -4 0ZM7 1a2 2 0 1 0 4 0a2 2 0 1 0 -4 0ZM-7 7a2 2 0 1 0 4 0a2 2 0 1 0 -4 0ZM3 7a2 2 0 1 0 4 0a2 2 0 1 0 -4 0ZM-2 11a2 2 0 1 0 4 0a2 2 0 1 0 -4 0Z"/><rect x="-8" y="13.5" width="16" height="4.5" rx="1.5"/></g>
<rect x="686" y="68" width="26" height="16" rx="8" fill="#E4EAF1" stroke="#1F4E8C" stroke-width="1.25"/>
<text x="699" y="80" text-anchor="middle" font-size="11.5" font-weight="600" fill="#1A1C1F">1</text>
<rect x="176" y="112" width="160" height="90" rx="8" fill="#F3F0E9" stroke="#BDB8AD" stroke-width="1"/>
<g fill="#E4E0D8"><rect x="352" y="122" width="260" height="10" rx="5"/><rect x="352" y="142" width="200" height="10" rx="5"/><rect x="352" y="174" width="110" height="8" rx="4"/></g>
<rect x="184" y="120" width="78" height="20" rx="6" fill="#FFFFFF" stroke="#1A1C1F" stroke-width="1.25"/>
<path d="M196 124Q197.1 128.9 202 130Q197.1 131.1 196 136Q194.9 131.1 190 130Q194.9 128.9 196 124Z" fill="#1A1C1F"/>
<text x="206" y="134" font-size="11.5" font-weight="600" fill="#1A1C1F">AI-made</text>
<line x1="176" y1="226" x2="302" y2="226" stroke="#8E8A80" stroke-dasharray="4 4"/>
<line x1="594" y1="226" x2="720" y2="226" stroke="#8E8A80" stroke-dasharray="4 4"/>
<text x="448" y="230" text-anchor="middle" font-size="11.5" fill="#5A5F66">One item hidden: the list closes up</text>
<rect x="176" y="250" width="160" height="90" rx="8" fill="#F3F0E9" stroke="#BDB8AD" stroke-width="1"/>
<g fill="#E4E0D8"><rect x="352" y="260" width="260" height="10" rx="5"/><rect x="352" y="280" width="200" height="10" rx="5"/><rect x="352" y="312" width="110" height="8" rx="4"/></g>
<rect x="652" y="258" width="60" height="28" rx="6" fill="#FFFFFF" stroke="#1A1C1F" stroke-width="1.25"/>
<polygon points="664,267 671,267 676,272 671,277 664,277" fill="none" stroke="#1A1C1F" stroke-width="1.25" stroke-linejoin="round"/>
<text x="683" y="276.5" font-size="12.5" font-weight="600" fill="#1A1C1F">Tag</text>
<text x="24" y="128" font-size="13" font-weight="600" fill="#1A1C1F">Label</text>
<text x="24" y="144" font-size="11.5" fill="#5A5F66">Chip on the item.</text>
<text x="24" y="160" font-size="11.5" fill="#5A5F66">Nothing hidden.</text>
<text x="24" y="230" font-size="13" font-weight="600" fill="#1A1C1F">Hide</text>
<text x="24" y="246" font-size="11.5" fill="#5A5F66">No gap, but counted</text>
<text x="24" y="284" font-size="13" font-weight="600" fill="#1A1C1F">Tag</text>
<text x="24" y="300" font-size="11.5" fill="#5A5F66">Two clicks, in place</text>
</svg>
